<svg width="200" height="200" viewBox="0 0 200 200" fill="none" xmlns="http://www.w3.org/2000/svg">
<g clip-path="url(#clip0_3631_810)">
<path d="M136.006 0C158.408 0 169.609 -0.000117461 178.165 4.35938C185.692 8.19431 191.812 14.3143 195.646 21.8408C200.006 30.3972 200.006 41.5983 200.006 64V136.006C200.006 158.408 200.006 169.609 195.646 178.165C191.812 185.692 185.692 191.812 178.165 195.646C169.609 200.006 158.408 200.006 136.006 200.006H64C41.5984 200.006 30.3972 200.006 21.8408 195.646C14.3143 191.812 8.19431 185.692 4.35938 178.165C-0.000117075 169.609 0 158.408 0 136.006V64C0 41.5983 -0.000108565 30.3972 4.35938 21.8408C8.19431 14.3143 14.3143 8.19431 21.8408 4.35938C30.3972 -0.000108565 41.5983 0 64 0H136.006ZM36.2354 132.266V149.947H87.8242V132.266H36.2354ZM64.7344 46.0068V63.6875H102.816L135.271 149.947H156.235L115.117 46.0068H64.7344Z" fill="#FF4017"/>
</g>
<defs>
<clipPath id="clip0_3631_810">
<rect width="200.006" height="200.006" fill="white"/>
</clipPath>
</defs>
</svg>
